{
  "accessors": [
    {
      "bufferView": 2,
      "componentType": 5126,
      "count": 2093,
      "max": [
        0.1810336410999298,
        0.18103286623954773,
        3.824702739715576
      ],
      "min": [
        -0.18103209137916565,
        -0.18103286623954773,
        -2.4846339225769043
      ],
      "type": "VEC3"
    },
    {
      "bufferView": 2,
      "byteOffset": 25116,
      "componentType": 5126,
      "count": 2093,
      "max": [
        1.0,
        1.0,
        1.0
      ],
      "min": [
        -1.0,
        -1.0,
        -1.0
      ],
      "type": "VEC3"
    },
    {
      "bufferView": 1,
      "componentType": 5126,
      "count": 2093,
      "max": [
        1.000160574913025,
        1.0000001192092896
      ],
      "min": [
        -0.0001605929428478703,
        0.01000000536441803
      ],
      "type": "VEC2"
    },
    {
      "bufferView": 0,
      "componentType": 5125,
      "count": 9972,
      "type": "SCALAR"
    },
    {
      "bufferView": 2,
      "byteOffset": 50232,
      "componentType": 5126,
      "count": 808,
      "max": [
        0.11130131781101227,
        0.11130131781101227,
        0.25234106183052063
      ],
      "min": [
        -0.11130131781101227,
        -0.11130131781101227,
        -0.25234106183052063
      ],
      "type": "VEC3"
    },
    {
      "bufferView": 2,
      "byteOffset": 59928,
      "componentType": 5126,
      "count": 808,
      "max": [
        0.9978561401367188,
        0.9978561401367188,
        0.9976072907447815
      ],
      "min": [
        -0.9978561401367188,
        -0.9978561401367188,
        -0.9976072907447815
      ],
      "type": "VEC3"
    },
    {
      "bufferView": 1,
      "byteOffset": 16744,
      "componentType": 5126,
      "count": 808,
      "max": [
        1.0,
        1.0
      ],
      "min": [
        0.0,
        0.010042018257081509
      ],
      "type": "VEC2"
    },
    {
      "bufferView": 0,
      "byteOffset": 39888,
      "componentType": 5125,
      "count": 2676,
      "type": "SCALAR"
    },
    {
      "bufferView": 2,
      "byteOffset": 69624,
      "componentType": 5126,
      "count": 1000,
      "max": [
        0.45921507477760315,
        0.09548147022724152,
        1.3833032846450806
      ],
      "min": [
        -0.19662398099899292,
        -0.09547971189022064,
        -1.3833032846450806
      ],
      "type": "VEC3"
    },
    {
      "bufferView": 2,
      "byteOffset": 81624,
      "componentType": 5126,
      "count": 1000,
      "max": [
        1.0,
        1.0,
        1.0
      ],
      "min": [
        -1.0,
        -1.0,
        -1.0
      ],
      "type": "VEC3"
    },
    {
      "bufferView": 1,
      "byteOffset": 23208,
      "componentType": 5126,
      "count": 1000,
      "max": [
        1.0,
        1.000000238418579
      ],
      "min": [
        -0.16377875208854675,
        0.01000000536441803
      ],
      "type": "VEC2"
    },
    {
      "bufferView": 0,
      "byteOffset": 50592,
      "componentType": 5125,
      "count": 5364,
      "type": "SCALAR"
    },
    {
      "bufferView": 2,
      "byteOffset": 93624,
      "componentType": 5126,
      "count": 1483,
      "max": [
        0.46155667304992676,
        0.29471784830093384,
        0.12212632596492767
      ],
      "min": [
        -0.46155667304992676,
        -0.29471784830093384,
        -0.14110152423381805
      ],
      "type": "VEC3"
    },
    {
      "bufferView": 2,
      "byteOffset": 111420,
      "componentType": 5126,
      "count": 1483,
      "max": [
        1.0,
        0.9990229606628418,
        0.9995715618133545
      ],
      "min": [
        -1.0,
        -0.9990231394767761,
        -1.0
      ],
      "type": "VEC3"
    },
    {
      "bufferView": 1,
      "byteOffset": 31208,
      "componentType": 5126,
      "count": 1483,
      "max": [
        0.8750000596046448,
        0.9590972661972046
      ],
      "min": [
        0.125,
        -0.0001350202801404521
      ],
      "type": "VEC2"
    },
    {
      "bufferView": 0,
      "byteOffset": 72048,
      "componentType": 5125,
      "count": 5610,
      "type": "SCALAR"
    },
    {
      "bufferView": 2,
      "byteOffset": 129216,
      "componentType": 5126,
      "count": 56,
      "max": [
        0.34712448716163635,
        0.20339982211589813,
        -0.029110336676239967
      ],
      "min": [
        -0.3471245765686035,
        -0.20339976251125336,
        -0.029110336676239967
      ],
      "type": "VEC3"
    },
    {
      "bufferView": 2,
      "byteOffset": 129888,
      "componentType": 5126,
      "count": 56,
      "max": [
        1.2855941311507024e-10,
        0.0,
        -1.0
      ],
      "min": [
        1.2855939923728243e-10,
        0.0,
        -1.0
      ],
      "type": "VEC3"
    },
    {
      "bufferView": 1,
      "byteOffset": 43072,
      "componentType": 5126,
      "count": 56,
      "max": [
        0.358801931142807,
        0.7246726155281067
      ],
      "min": [
        0.14119814336299896,
        0.5253273248672485
      ],
      "type": "VEC2"
    },
    {
      "bufferView": 0,
      "byteOffset": 94488,
      "componentType": 5125,
      "count": 138,
      "type": "SCALAR"
    }
  ],
  "asset": {
    "extras": {
      "author": "Fridqeir (https://sketchfab.com/Fridqeir)",
      "license": "CC-BY-4.0 (http://creativecommons.org/licenses/by/4.0/)",
      "source": "https://sketchfab.com/3d-models/low-poly-street-light-bf960763cd58472eb444e2d4875ca474",
      "title": "Low Poly Street Light"
    },
    "generator": "Sketchfab-15.30.0",
    "version": "2.0"
  },
  "bufferViews": [
    {
      "buffer": 0,
      "byteLength": 95040,
      "name": "floatBufferViews",
      "target": 34963
    },
    {
      "buffer": 0,
      "byteLength": 43520,
      "byteOffset": 95040,
      "byteStride": 8,
      "name": "floatBufferViews",
      "target": 34962
    },
    {
      "buffer": 0,
      "byteLength": 130560,
      "byteOffset": 138560,
      "byteStride": 12,
      "name": "floatBufferViews",
      "target": 34962
    }
  ],
  "buffers": [
    {
      "byteLength": 269120,
      "uri": "scene.bin"
    }
  ],
  "extensionsUsed": [
    "KHR_materials_specular",
    "KHR_materials_emissive_strength"
  ],
  "materials": [
    {
      "doubleSided": true,
      "extensions": {
        "KHR_materials_specular": {
          "specularColorFactor": [
            1.0,
            1.0,
            1.0
          ],
          "specularFactor": 0.42480701158270034
        }
      },
      "name": "Material.001",
      "pbrMetallicRoughness": {
        "baseColorFactor": [
          0.404358,
          0.404358,
          0.404358,
          1.0
        ],
        "roughnessFactor": 0.5705592449320259
      }
    },
    {
      "doubleSided": true,
      "emissiveFactor": [
        1.0,
        0.7759444747460762,
        0.0
      ],
      "extensions": {
        "KHR_materials_emissive_strength": {
          "emissiveStrength": 7.831145852331257
        }
      },
      "name": "Material",
      "pbrMetallicRoughness": {
        "metallicFactor": 0.0,
        "roughnessFactor": 0.8211145618000169
      }
    }
  ],
  "meshes": [
    {
      "name": "Cylinder_Material.001_0",
      "primitives": [
        {
          "attributes": {
            "NORMAL": 1,
            "POSITION": 0,
            "TEXCOORD_0": 2
          },
          "indices": 3,
          "material": 0,
          "mode": 4
        }
      ]
    },
    {
      "name": "Cylinder.001_Material.001_0",
      "primitives": [
        {
          "attributes": {
            "NORMAL": 5,
            "POSITION": 4,
            "TEXCOORD_0": 6
          },
          "indices": 7,
          "material": 0,
          "mode": 4
        }
      ]
    },
    {
      "name": "Cylinder.002_Material.001_0",
      "primitives": [
        {
          "attributes": {
            "NORMAL": 9,
            "POSITION": 8,
            "TEXCOORD_0": 10
          },
          "indices": 11,
          "material": 0,
          "mode": 4
        }
      ]
    },
    {
      "name": "Cube_Material.001_0",
      "primitives": [
        {
          "attributes": {
            "NORMAL": 13,
            "POSITION": 12,
            "TEXCOORD_0": 14
          },
          "indices": 15,
          "material": 0,
          "mode": 4
        }
      ]
    },
    {
      "name": "Cube_Material_0",
      "primitives": [
        {
          "attributes": {
            "NORMAL": 17,
            "POSITION": 16,
            "TEXCOORD_0": 18
          },
          "indices": 19,
          "material": 1,
          "mode": 4
        }
      ]
    }
  ],
  "nodes": [
    {
      "children": [
        1
      ],
      "matrix": [
        1.0,
        0.0,
        0.0,
        0.0,
        0.0,
        2.220446049250313e-16,
        -1.0,
        0.0,
        0.0,
        1.0,
        2.220446049250313e-16,
        0.0,
        0.0,
        0.0,
        0.0,
        1.0
      ],
      "name": "Sketchfab_model"
    },
    {
      "children": [
        2
      ],
      "matrix": [
        0.009999999776482582,
        0.0,
        0.0,
        0.0,
        0.0,
        0.0,
        0.009999999776482582,
        0.0,
        0.0,
        -0.009999999776482582,
        0.0,
        0.0,
        0.0,
        0.0,
        0.0,
        1.0
      ],
      "name": "aae5979e42cf41a1a12f6d19f9607b16.fbx"
    },
    {
      "children": [
        3,
        5,
        7,
        9
      ],
      "name": "RootNode"
    },
    {
      "children": [
        4
      ],
      "matrix": [
        100.0,
        0.0,
        0.0,
        0.0,
        -0.0,
        -1.629206793918314e-05,
        -99.99999999999868,
        0.0,
        0.0,
        99.99999999999868,
        -1.629206793918314e-05,
        0.0,
        -7.738693966530263e-05,
        248.46339416503906,
        6.46334228804335e-07,
        1.0
      ],
      "name": "Cylinder"
    },
    {
      "mesh": 0,
      "name": "Cylinder_Material.001_0"
    },
    {
      "children": [
        6
      ],
      "matrix": [
        100.0,
        0.0,
        0.0,
        0.0,
        0.0,
        -1.629206793918314e-05,
        -99.99999999999868,
        0.0,
        0.0,
        99.99999999999868,
        -1.629206793918314e-05,
        0.0,
        6.546612496549642e-08,
        540.8895263671875,
        2.934377718588621e-08,
        1.0
      ],
      "name": "Cylinder.001"
    },
    {
      "mesh": 1,
      "name": "Cylinder.001_Material.001_0"
    },
    {
      "children": [
        8
      ],
      "matrix": [
        5.937105250812359e-06,
        -78.6393432617184,
        -4.6872706705201745e-06,
        0.0,
        -1.281197560654766e-05,
        4.687269701410149e-06,
        -78.63934326171756,
        0.0,
        78.63934326171749,
        5.937106014750443e-06,
        -1.28119752485881e-05,
        0.0,
        115.82815551757813,
        569.9491577148438,
        6.196898902999237e-05,
        1.0
      ],
      "name": "Cylinder.002"
    },
    {
      "mesh": 2,
      "name": "Cylinder.002_Material.001_0"
    },
    {
      "children": [
        10,
        11
      ],
      "matrix": [
        100.0,
        0.0,
        0.0,
        0.0,
        0.0,
        -1.629206793918314e-05,
        -99.99999999999868,
        0.0,
        0.0,
        99.99999999999868,
        -1.629206793918314e-05,
        0.0,
        260.76251220703125,
        581.4595336914063,
        1.2805458027287386e-06,
        1.0
      ],
      "name": "Cube"
    },
    {
      "mesh": 3,
      "name": "Cube_Material.001_0"
    },
    {
      "mesh": 4,
      "name": "Cube_Material_0"
    }
  ],
  "scene": 0,
  "scenes": [
    {
      "name": "Sketchfab_Scene",
      "nodes": [
        0
      ]
    }
  ]
}
