{
  "accessors": [
    {
      "bufferView": 2,
      "componentType": 5126,
      "count": 404,
      "max": [
        7.700288772583008,
        28.216957092285156,
        -0.21386979520320892
      ],
      "min": [
        -7.688594818115234,
        -0.25698280334472656,
        -0.21386979520320892
      ],
      "type": "VEC3"
    },
    {
      "bufferView": 2,
      "byteOffset": 4848,
      "componentType": 5126,
      "count": 404,
      "max": [
        1.2576654739859805e-07,
        0.0,
        -1.0
      ],
      "min": [
        -5.737081920642595e-08,
        0.0,
        -1.0
      ],
      "type": "VEC3"
    },
    {
      "bufferView": 1,
      "componentType": 5126,
      "count": 404,
      "max": [
        0.4916419982910156,
        0.8119392395019531
      ],
      "min": [
        0.1815013885498047,
        0.23809051513671875
      ],
      "type": "VEC2"
    },
    {
      "bufferView": 1,
      "byteOffset": 3232,
      "componentType": 5126,
      "count": 404,
      "max": [
        1.0333333015441895,
        0.9266666769981384
      ],
      "min": [
        -0.03333336114883423,
        -0.14000004529953003
      ],
      "type": "VEC2"
    },
    {
      "bufferView": 0,
      "componentType": 5125,
      "count": 1050,
      "type": "SCALAR"
    },
    {
      "bufferView": 2,
      "byteOffset": 9696,
      "componentType": 5126,
      "count": 370,
      "max": [
        16.586318969726563,
        40.0267448425293,
        -0.21386979520320892
      ],
      "min": [
        -16.69051742553711,
        -9.584287643432617,
        -0.21386979520320892
      ],
      "type": "VEC3"
    },
    {
      "bufferView": 2,
      "byteOffset": 14136,
      "componentType": 5126,
      "count": 370,
      "max": [
        1.438289043420582e-09,
        0.0,
        -1.0
      ],
      "min": [
        -4.725912106096075e-08,
        0.0,
        -1.0
      ],
      "type": "VEC3"
    },
    {
      "bufferView": 3,
      "componentType": 5126,
      "count": 370,
      "max": [
        1.0,
        0.0005233489209786057,
        1.4382891544428844e-09,
        1.0
      ],
      "min": [
        -1.0,
        -0.00035332777770236135,
        -4.725912461367443e-08,
        -1.0
      ],
      "type": "VEC4"
    },
    {
      "bufferView": 1,
      "byteOffset": 6464,
      "componentType": 5126,
      "count": 370,
      "max": [
        1.8058464527130127,
        2.4468321800231934
      ],
      "min": [
        -0.8058468103408813,
        -1.4468317031860352
      ],
      "type": "VEC2"
    },
    {
      "bufferView": 1,
      "byteOffset": 9424,
      "componentType": 5126,
      "count": 370,
      "max": [
        1.0333333015441895,
        0.9266666769981384
      ],
      "min": [
        -0.03333336114883423,
        -0.14000004529953003
      ],
      "type": "VEC2"
    },
    {
      "bufferView": 1,
      "byteOffset": 12384,
      "componentType": 5126,
      "count": 370,
      "max": [
        1.8058464527130127,
        2.4468321800231934
      ],
      "min": [
        -0.8058468103408813,
        -1.4468317031860352
      ],
      "type": "VEC2"
    },
    {
      "bufferView": 0,
      "byteOffset": 4200,
      "componentType": 5125,
      "count": 1020,
      "type": "SCALAR"
    }
  ],
  "asset": {
    "extras": {
      "author": "1araimjonov (https://sketchfab.com/1araimjonov)",
      "license": "CC-BY-4.0 (http://creativecommons.org/licenses/by/4.0/)",
      "source": "https://sketchfab.com/3d-models/basketball-court-32e7f7f5fd5e43cba3357dbfd91afcaa",
      "title": "Basketball court"
    },
    "generator": "Sketchfab-13.48.0",
    "version": "2.0"
  },
  "bufferViews": [
    {
      "buffer": 0,
      "byteLength": 8280,
      "name": "floatBufferViews",
      "target": 34963
    },
    {
      "buffer": 0,
      "byteLength": 15344,
      "byteOffset": 8280,
      "byteStride": 8,
      "name": "floatBufferViews",
      "target": 34962
    },
    {
      "buffer": 0,
      "byteLength": 18576,
      "byteOffset": 23624,
      "byteStride": 12,
      "name": "floatBufferViews",
      "target": 34962
    },
    {
      "buffer": 0,
      "byteLength": 5920,
      "byteOffset": 42200,
      "byteStride": 16,
      "name": "floatBufferViews",
      "target": 34962
    }
  ],
  "buffers": [
    {
      "byteLength": 48120,
      "uri": "scene.bin"
    }
  ],
  "images": [
    {
      "uri": "textures/Wooden_floor_baseColor.png"
    },
    {
      "uri": "textures/Wooden_floor_normal.png"
    }
  ],
  "materials": [
    {
      "doubleSided": true,
      "name": "Material",
      "pbrMetallicRoughness": {
        "baseColorFactor": [
          0.8,
          0.8,
          0.8,
          1.0
        ],
        "metallicFactor": 0.0,
        "roughnessFactor": 0.8211145618000169
      }
    },
    {
      "doubleSided": true,
      "name": "Wooden_floor",
      "normalTexture": {
        "index": 1
      },
      "pbrMetallicRoughness": {
        "baseColorTexture": {
          "index": 0
        },
        "metallicFactor": 0.0,
        "roughnessFactor": 0.8267949192431123
      }
    }
  ],
  "meshes": [
    {
      "name": "Circle_Material_0",
      "primitives": [
        {
          "attributes": {
            "NORMAL": 1,
            "POSITION": 0,
            "TEXCOORD_0": 2,
            "TEXCOORD_1": 3
          },
          "indices": 4,
          "material": 0,
          "mode": 4
        }
      ]
    },
    {
      "name": "Circle_Wooden floor_0",
      "primitives": [
        {
          "attributes": {
            "NORMAL": 6,
            "POSITION": 5,
            "TANGENT": 7,
            "TEXCOORD_0": 8,
            "TEXCOORD_1": 9,
            "TEXCOORD_2": 10
          },
          "indices": 11,
          "material": 1,
          "mode": 4
        }
      ]
    }
  ],
  "nodes": [
    {
      "children": [
        1
      ],
      "matrix": [
        1.0,
        0.0,
        0.0,
        0.0,
        0.0,
        2.220446049250313e-16,
        -1.0,
        0.0,
        0.0,
        1.0,
        2.220446049250313e-16,
        0.0,
        0.0,
        0.0,
        0.0,
        1.0
      ],
      "name": "Sketchfab_model"
    },
    {
      "children": [
        2
      ],
      "matrix": [
        0.009999999776482582,
        0.0,
        0.0,
        0.0,
        0.0,
        0.0,
        0.009999999776482582,
        0.0,
        0.0,
        -0.009999999776482582,
        0.0,
        0.0,
        0.0,
        0.0,
        0.0,
        1.0
      ],
      "name": "35d2d2ab9ee1415097ad0e6163d4e8e6.fbx"
    },
    {
      "children": [
        3
      ],
      "name": "RootNode"
    },
    {
      "children": [
        4,
        5
      ],
      "matrix": [
        100.0,
        0.0,
        0.0,
        0.0,
        0.0,
        -1.629206793918314e-05,
        -99.99999999999868,
        0.0,
        0.0,
        99.99999999999868,
        -1.629206793918314e-05,
        0.0,
        0.0,
        21.386978149414063,
        1400.0,
        1.0
      ],
      "name": "Circle"
    },
    {
      "mesh": 0,
      "name": "Circle_Material_0"
    },
    {
      "mesh": 1,
      "name": "Circle_Wooden floor_0"
    }
  ],
  "samplers": [
    {
      "magFilter": 9729,
      "minFilter": 9987,
      "wrapS": 10497,
      "wrapT": 10497
    }
  ],
  "scene": 0,
  "scenes": [
    {
      "name": "Sketchfab_Scene",
      "nodes": [
        0
      ]
    }
  ],
  "textures": [
    {
      "sampler": 0,
      "source": 0
    },
    {
      "sampler": 0,
      "source": 1
    }
  ]
}
